<svg width="25" height="18" viewBox="0 0 25 18" fill="none" xmlns="http://www.w3.org/2000/svg">
<path d="M5.8371 6.08297C5.59097 6.3667 5.19718 6.59049 4.80338 6.55852C4.75416 6.17488 4.94696 5.76727 5.17257 5.51551C5.41869 5.22379 5.8494 5.01598 6.19808 5C6.2391 5.39962 6.07912 5.79125 5.8371 6.08297ZM6.19397 6.63444C5.62379 6.60247 5.13565 6.95014 4.86491 6.95014C4.59008 6.95014 4.17577 6.65043 3.72455 6.65842C3.13796 6.66641 2.59239 6.9901 2.29294 7.50561C1.67764 8.53663 2.13296 10.0632 2.72776 10.9024C3.019 11.318 3.36767 11.7735 3.8271 11.7576C4.26192 11.7416 4.4342 11.4818 4.95926 11.4818C5.48842 11.4818 5.6402 11.7576 6.09963 11.7496C6.57546 11.7416 6.87491 11.334 7.16615 10.9184C7.49842 10.4468 7.63379 9.98725 7.64199 9.96327C7.63379 9.95528 6.72314 9.6156 6.71493 8.59258C6.70673 7.73739 7.43279 7.32978 7.4656 7.3058C7.0554 6.71437 6.41548 6.65043 6.19397 6.63444ZM9.48791 5.47555V11.7056H10.4806V9.57564H11.8548C13.11 9.57564 13.9919 8.73644 13.9919 7.5216C13.9919 6.30676 13.1264 5.47555 11.8876 5.47555H9.48791ZM10.4806 6.29077H11.6251C12.4865 6.29077 12.9787 6.73834 12.9787 7.52559C12.9787 8.31285 12.4865 8.76442 11.621 8.76442H10.4806V6.29077ZM15.805 11.7536C16.4285 11.7536 17.0069 11.4459 17.2695 10.9583H17.29V11.7056H18.2088V8.60457C18.2088 7.70542 17.4705 7.12598 16.3342 7.12598C15.28 7.12598 14.5006 7.71342 14.4719 8.52065H15.3661C15.44 8.13701 15.805 7.88525 16.3055 7.88525C16.9126 7.88525 17.2531 8.16099 17.2531 8.66851V9.01218L16.0142 9.08411C14.8616 9.15205 14.2381 9.61161 14.2381 10.4108C14.2381 11.2181 14.8821 11.7536 15.805 11.7536ZM16.0717 11.0143C15.5425 11.0143 15.2061 10.7665 15.2061 10.3869C15.2061 9.99524 15.5302 9.76746 16.1496 9.73149L17.2531 9.66356V10.0152C17.2531 10.5987 16.7444 11.0143 16.0717 11.0143ZM19.4353 13.4C20.4034 13.4 20.8587 13.0403 21.2566 11.9494L23 7.18592H21.9909L20.8218 10.8664H20.8013L19.6322 7.18592H18.5944L20.2762 11.7216L20.186 11.9973C20.0342 12.4649 19.7881 12.6447 19.3492 12.6447C19.2713 12.6447 19.1195 12.6367 19.0579 12.6287V13.376C19.1154 13.392 19.3615 13.4 19.4353 13.4Z" fill="black"/>
<rect x="0.75" y="0.25" width="23.5" height="17.5" stroke="black" stroke-width="0.5"/>
</svg>
