<svg width="23" height="8" viewBox="0 0 23 8" fill="none" xmlns="http://www.w3.org/2000/svg">
<path d="M10.0333 7.01732H8.25116L9.36585 0.124939H11.1479L10.0333 7.01732Z" fill="#00579F"/>
<path d="M16.4938 0.293436C16.1423 0.153979 15.5847 0 14.8953 0C13.1354 0 11.8961 0.938489 11.8885 2.28024C11.8738 3.27019 12.7758 3.82003 13.4504 4.15011C14.1398 4.4874 14.3742 4.70755 14.3742 5.0082C14.3672 5.46994 13.8171 5.68278 13.304 5.68278C12.5925 5.68278 12.2112 5.57304 11.6319 5.31615L11.3972 5.20603L11.1478 6.75322C11.5658 6.94365 12.3359 7.11263 13.1354 7.12004C15.0053 7.12004 16.2227 6.19607 16.2372 4.76622C16.2443 3.98161 15.768 3.38041 14.7412 2.88914C14.1179 2.57378 13.7362 2.36113 13.7362 2.03846C13.7435 1.74512 14.0591 1.44467 14.7627 1.44467C15.342 1.42995 15.7677 1.56922 16.0902 1.70858L16.2514 1.78176L16.4938 0.293436Z" fill="#00579F"/>
<path d="M18.8624 4.5756C19.0092 4.17964 19.5739 2.64716 19.5739 2.64716C19.5665 2.66188 19.7204 2.2439 19.8084 1.9873L19.9329 2.58119C19.9329 2.58119 20.2704 4.231 20.3437 4.5756C20.0652 4.5756 19.2144 4.5756 18.8624 4.5756ZM21.0622 0.124939H19.6837C19.2587 0.124939 18.9357 0.249486 18.7523 0.696803L16.1051 7.01723H17.9751C17.9751 7.01723 18.2829 6.16654 18.3491 5.98333C18.5543 5.98333 20.3733 5.98333 20.6372 5.98333C20.6884 6.22531 20.8499 7.01723 20.8499 7.01723H22.5L21.0622 0.124939Z" fill="#00579F"/>
<path d="M6.76264 0.124939L5.01732 4.82488L4.8266 3.87168C4.50393 2.77181 3.49196 1.57682 2.36266 0.982638L3.9613 7.01001H5.84588L8.64712 0.124939H6.76264Z" fill="#00579F"/>
<path d="M3.39664 0.124939H0.529334L0.5 0.264202C2.73668 0.836163 4.21799 2.21485 4.8266 3.87197L4.20328 0.704307C4.10066 0.264104 3.78529 0.13946 3.39664 0.124939Z" fill="#FAA61A"/>
</svg>
