<svg width="25" height="18" viewBox="0 0 25 18" fill="none" xmlns="http://www.w3.org/2000/svg">
<path d="M14.9736 4.54301H10.0132V13.457H14.9736V4.54301Z" fill="#FF5F00"/>
<path d="M10.3282 9.00001C10.3274 8.14153 10.522 7.29412 10.8971 6.52194C11.2722 5.74976 11.8181 5.07304 12.4934 4.54302C11.6571 3.88567 10.6528 3.47687 9.59512 3.36336C8.53747 3.24984 7.46923 3.43617 6.51248 3.90107C5.55573 4.36598 4.74908 5.09068 4.18473 5.99236C3.62038 6.89403 3.32111 7.93629 3.32111 9.00001C3.32111 10.0637 3.62038 11.106 4.18473 12.0077C4.74908 12.9093 5.55573 13.634 6.51248 14.0989C7.46923 14.5638 8.53747 14.7502 9.59512 14.6367C10.6528 14.5231 11.6571 14.1144 12.4934 13.457C11.8181 12.927 11.2722 12.2503 10.8971 11.4781C10.522 10.7059 10.3274 9.85849 10.3282 9.00001Z" fill="#EB001B"/>
<path d="M21.6655 9.00001C21.6655 10.0637 21.3663 11.106 20.802 12.0076C20.2377 12.9093 19.431 13.634 18.4743 14.0989C17.5176 14.5638 16.4493 14.7502 15.3917 14.6367C14.3341 14.5231 13.3297 14.1144 12.4934 13.457C13.1682 12.9264 13.7136 12.2496 14.0887 11.4776C14.4638 10.7055 14.6587 9.85835 14.6587 9.00001C14.6587 8.14166 14.4638 7.29452 14.0887 6.52246C13.7136 5.7504 13.1682 5.07357 12.4934 4.54302C13.3297 3.88567 14.3341 3.47687 15.3917 3.36335C16.4493 3.24984 17.5176 3.43618 18.4743 3.90109C19.431 4.36599 20.2377 5.0907 20.802 5.99237C21.3663 6.89405 21.6655 7.9363 21.6655 9.00001Z" fill="#F79E1B"/>
<path d="M21.1246 12.5129V12.3304H21.1982V12.2932H21.0108V12.3304H21.0844V12.5129H21.1246ZM21.4885 12.5129V12.2928H21.431L21.3649 12.4442L21.2989 12.2928H21.2414V12.5129H21.2819V12.3469L21.3439 12.49H21.386L21.4479 12.3465V12.5129H21.4885Z" fill="#F79E1B"/>
</svg>
